<svg width="17" height="16" viewBox="0 0 17 16" fill="none" xmlns="http://www.w3.org/2000/svg">
<path d="M3.54167 12.6667H4.55104L11.475 6.15L10.4656 5.2L3.54167 11.7167V12.6667ZM2.125 14V11.1667L11.475 2.38333C11.6167 2.26111 11.7731 2.16667 11.9443 2.1C12.1155 2.03333 12.2955 2 12.4844 2C12.6733 2 12.8562 2.03333 13.0333 2.1C13.2104 2.16667 13.3639 2.26667 13.4937 2.4L14.4677 3.33333C14.6094 3.45556 14.7127 3.6 14.7776 3.76667C14.8425 3.93333 14.875 4.1 14.875 4.26667C14.875 4.44444 14.8425 4.61389 14.7776 4.775C14.7127 4.93611 14.6094 5.08333 14.4677 5.21667L5.13542 14H2.125ZM10.9615 5.68333L10.4656 5.2L11.475 6.15L10.9615 5.68333Z" fill="white"/>
</svg>
